# xmcd
#
# Track frame offsets: 
#        182
#        14100
#        35305
#        63160
#        77160
#        94655
#        111450
#        125707
#        136002
#        160970
#        178492
#        214797
#        245625
#        255265
#        271590
#
# Disc length: 3713 seconds
#
# Revision: 1
# Processed by: cddbd v1.5.2PL0 Copyright (c) Steve Scherf et al.
# Submitted via: ExactAudioCopy v0.95b4
#
DISCID=d20e7f0f
DTITLE=Хоровая капелла им. Глинки, С.-Петербург - С.Рахманинов. Всенощ
DTITLE=ное бдение, соч.37
DYEAR=2006
DGENRE=Chorus
TTITLE0=Прийдите, поклонимся
TTITLE1=Благослови, душе моя, Господа
TTITLE2=Блажен муж
TTITLE3=Свете тихий
TTITLE4=Ныне отпущаеши раба твоего, Владыко
TTITLE5=Богородице Дево, радуйся
TTITLE6=Шестопсалмие
TTITLE7=Хвалите имя Господне
TTITLE8=Благословен еси, Господи
TTITLE9=Воскресение Христово видевше
TTITLE10=Величит душе моя Господа
TTITLE11=Славословие Великое
TTITLE12=Тропарь 'Днесь спасение'
TTITLE13=Тропарь 'Воскрес из гроба'
TTITLE14=Взбранной воеводе победительная
EXTD=
EXTT0=
EXTT1=
EXTT2=
EXTT3=
EXTT4=
EXTT5=
EXTT6=
EXTT7=
EXTT8=
EXTT9=
EXTT10=
EXTT11=
EXTT12=
EXTT13=
EXTT14=
PLAYORDER=
